<?xml version="1.0" encoding="UTF-8" standalone="no"?>
<!-- Created with Inkscape (http://www.inkscape.org/) -->

<svg
   width="480mm"
   height="272mm"
   viewBox="0 0 480 272"
   version="1.1"
   id="svg5"
   xml:space="preserve"
   inkscape:export-filename="01.png"
   inkscape:export-xdpi="25.4"
   inkscape:export-ydpi="25.4"
   inkscape:version="1.2.1 (9c6d41e410, 2022-07-14)"
   sodipodi:docname="DWIN_PROJECT.svg"
   xmlns:inkscape="http://www.inkscape.org/namespaces/inkscape"
   xmlns:sodipodi="http://sodipodi.sourceforge.net/DTD/sodipodi-0.dtd"
   xmlns:xlink="http://www.w3.org/1999/xlink"
   xmlns="http://www.w3.org/2000/svg"
   xmlns:svg="http://www.w3.org/2000/svg"><sodipodi:namedview
     id="namedview7"
     pagecolor="#ffffff"
     bordercolor="#000000"
     borderopacity="0.25"
     inkscape:showpageshadow="2"
     inkscape:pageopacity="0.0"
     inkscape:pagecheckerboard="0"
     inkscape:deskcolor="#d1d1d1"
     inkscape:document-units="mm"
     showgrid="false"
     inkscape:zoom="0.69838976"
     inkscape:cx="852.67573"
     inkscape:cy="514.75554"
     inkscape:window-width="1920"
     inkscape:window-height="1001"
     inkscape:window-x="-9"
     inkscape:window-y="-9"
     inkscape:window-maximized="1"
     inkscape:current-layer="layer1"
     showguides="true" /><defs
     id="defs2"><rect
       x="432.42329"
       y="396.62666"
       width="488.26603"
       height="160.36891"
       id="rect1130" /><rect
       x="1551.1485"
       y="1036.6972"
       width="3.897358"
       height="89.639235"
       id="rect4942" /><rect
       x="290.35317"
       y="288.4045"
       width="1276.3848"
       height="701.52445"
       id="rect4725" /><linearGradient
       id="linearGradient1836"
       inkscape:swatch="solid"><stop
         style="stop-color:#000000;stop-opacity:1;"
         offset="0"
         id="stop1834" /></linearGradient><rect
       x="653.43962"
       y="40.752148"
       width="668.89733"
       height="148.95613"
       id="rect1444" /><rect
       id="p"
       width="8"
       height="8" /></defs><g
     inkscape:label="Livello 1"
     inkscape:groupmode="layer"
     id="layer1"
     transform="translate(-33.932434,-74.432434)"><rect
       style="fill:#ececf0;fill-opacity:1;stroke-width:0.264583"
       id="rect111"
       width="480"
       height="272"
       x="34.690128"
       y="72.622437" /><rect
       style="display:none;fill:#afdde9;stroke:none;stroke-width:0.463132;stroke-linecap:round;stroke-linejoin:round;stroke-dasharray:none;stroke-opacity:1;paint-order:stroke fill markers"
       id="rect1892-6"
       width="108.56699"
       height="153.5554"
       x="381.19812"
       y="163.14569"
       ry="23.79027" /><rect
       style="display:none;fill:#afdde9;stroke:none;stroke-width:0.463132;stroke-linecap:round;stroke-linejoin:round;stroke-dasharray:none;stroke-opacity:1;paint-order:stroke fill markers"
       id="rect1892-9"
       width="108.56699"
       height="153.5554"
       x="220.375"
       y="163.88931"
       ry="23.79027" /><rect
       style="display:inline;fill:#afdde9;stroke-width:0.316377"
       id="rect273"
       width="456.38"
       height="47.877552"
       x="45.742599"
       y="98.432434"
       ry="23.938776" /><text
       xml:space="preserve"
       transform="matrix(0.26458333,0,0,0.26458333,46.248311,94.027727)"
       id="text1442"
       style="font-style:normal;font-variant:normal;font-weight:normal;font-stretch:normal;font-size:120px;font-family:'Rockwell Extra Bold';-inkscape-font-specification:'Rockwell Extra Bold, ';white-space:pre;shape-inside:url(#rect1444);display:inline;fill:#0b2228"><tspan
         x="653.43945"
         y="147.34959"
         id="tspan1824">MENU</tspan></text><rect
       style="display:none;fill:#afdde9;stroke:none;stroke-width:0.463132;stroke-linecap:round;stroke-linejoin:round;stroke-dasharray:none;stroke-opacity:1;paint-order:stroke fill markers"
       id="rect1892"
       width="108.56699"
       height="153.5554"
       x="55.868912"
       y="162.21619"
       ry="23.79027" /><path
       d="m 440.01393,218.7534 a 3.9677414,3.9683172 0 0 0 -3.96779,3.96837 3.9677414,3.9683172 0 0 0 3.96779,3.96826 3.9677414,3.9683172 0 0 0 3.96769,-3.96826 3.9677414,3.9683172 0 0 0 -3.96769,-3.96837 m -0.95276,12.61932 c -3.1478,0.26497 -11.74452,7.11643 -11.74452,7.11643 -0.52886,0.39695 -0.3699,0.36996 0.05,1.11118 0.42289,0.71392 0.36991,0.76691 0.87278,0.42295 0.52887,-0.34396 1.40194,-0.8999 2.85677,-1.799 5.60768,-3.59791 0.89977,4.70908 -1.50781,18.70406 -0.95276,6.93134 5.29035,3.35983 6.90394,2.30155 1.5871,-1.03169 5.84582,-3.96827 6.26901,-4.25924 0.58185,-0.39696 0.15896,-0.71392 -0.29093,-1.37575 -0.31692,-0.44995 -0.63484,-0.13199 -0.63484,-0.13199 -1.71936,1.13758 -4.86706,3.51862 -5.29035,2.01069 -0.50287,-1.50804 2.72451,-11.85211 4.49676,-18.96864 0.29092,-1.69311 1.08452,-5.39691 -1.9838,-5.13234 z"
       id="path2776"
       style="display:none;fill:#0b2228;stroke-width:2.64952;stroke-dasharray:none" /><path
       d="m 136.61241,249.5779 v -31.75198 a 5.2919967,5.2919967 0 0 0 -5.29203,-5.29203 H 99.5684 a 5.2919967,5.2919967 0 0 0 -5.29203,5.29203 v 31.75198 a 5.2919967,5.2919967 0 0 0 5.29203,5.29203 h 31.75198 a 5.2919967,5.2919967 0 0 0 5.29203,-5.29203 m -29.10602,-10.58396 5.37134,7.17065 7.85869,-9.81672 10.58396,13.23003 H 99.5684 M 83.69241,223.11795 v 37.04391 a 5.2919967,5.2919967 0 0 0 5.29203,5.29203 h 37.04391 v -5.29203 H 88.98444 v -37.04391"
       id="path2793"
       style="display:none;fill:#0b2228;stroke-width:2.64599" /><path
       d="m 274.66453,249.92801 a 9.2598626,9.2610117 0 0 1 -9.25984,-9.26099 9.2598626,9.2610117 0 0 1 9.25984,-9.26099 9.2598626,9.2610117 0 0 1 9.25995,9.26099 9.2598626,9.2610117 0 0 1 -9.25995,9.26099 m 19.65743,-6.69433 c 0.10599,-0.84705 0.18499,-1.6935 0.18499,-2.56666 0,-0.87306 -0.08,-1.74641 -0.18499,-2.64597 l 5.58236,-4.31298 c 0.50297,-0.39702 0.63497,-1.11137 0.31698,-1.69351 l -5.29138,-9.15518 c -0.31698,-0.58204 -1.03174,-0.82006 -1.6138,-0.58204 l -6.58781,2.64607 c -1.37572,-1.03197 -2.80433,-1.93163 -4.47113,-2.59317 l -0.97894,-7.01185 c -0.106,-0.63504 -0.66096,-1.11137 -1.32282,-1.11137 h -10.58277 c -0.66096,0 -1.21693,0.47603 -1.32282,1.11137 l -0.97894,7.01185 c -1.6668,0.66204 -3.09542,1.5612 -4.47113,2.59317 l -6.58771,-2.64597 c -0.58197,-0.23802 -1.29632,0 -1.6138,0.58204 l -5.29139,9.15508 c -0.34398,0.58204 -0.18499,1.29659 0.31798,1.69351 l 5.58237,4.31298 c -0.10599,0.90006 -0.18499,1.77281 -0.18499,2.64597 0,0.87306 0.08,1.71991 0.18499,2.56666 l -5.58237,4.39239 c -0.50297,0.39702 -0.66196,1.11127 -0.31798,1.69341 l 5.29139,9.15518 c 0.31698,0.58204 1.03173,0.79406 1.6138,0.58204 l 6.58771,-2.67247 c 1.37581,1.05837 2.80443,1.95803 4.47123,2.61957 l 0.97894,7.01185 c 0.10599,0.63504 0.66096,1.11137 1.32282,1.11137 h 10.58277 c 0.66096,0 1.21692,-0.47603 1.32282,-1.11137 l 0.97894,-7.01185 c 1.6667,-0.68805 3.09541,-1.5612 4.47113,-2.61957 l 6.58771,2.67247 c 0.58196,0.21202 1.29642,0 1.6139,-0.58204 l 5.29138,-9.15518 c 0.31699,-0.58204 0.18499,-1.29659 -0.31698,-1.69341 z"
       id="path4066"
       style="display:none;fill:#0b2228;stroke-width:2.64584"
       inkscape:label="path4066" /><path
       d="m 38.932434,326.4324 a 14.99999,14.99999 0 0 1 14.99997,-14.99997 14.99999,14.99999 0 0 1 15.00003,14.99997 14.99999,14.99999 0 0 1 -15.00003,15.00003 14.99999,14.99999 0 0 1 -14.99997,-15.00003 m 23.99997,-1.49997 h -11.99997 l 5.25,-5.25 -2.13,-2.13 -8.88,8.87997 8.88,8.88003 2.13,-2.13 -5.25,-5.25 h 11.99997 z"
       id="path4665"
       style="stroke-width:1.49999" /><text
       xml:space="preserve"
       transform="matrix(0.42400961,0,0,0.31669081,-119.10076,51.460333)"
       id="text4723"
       style="font-style:normal;font-variant:normal;font-weight:normal;font-stretch:normal;font-size:85.3333px;font-family:'Rockwell Extra Bold';-inkscape-font-specification:'Rockwell Extra Bold, ';text-align:center;white-space:pre;shape-inside:url(#rect4725);display:none;fill:#004455;fill-opacity:1;stroke:none;stroke-width:1.00157;stroke-linecap:round;stroke-linejoin:round;stroke-dasharray:none;stroke-opacity:1;paint-order:stroke fill markers"
       x="570.06226"
       y="0" /><text
       xml:space="preserve"
       transform="matrix(0.26458333,0,0,0.26458333,33.932434,74.432434)"
       id="text4940"
       style="fill:#0b2228;font-size:74.66666667px;stroke-width:1.0015748;stroke-dasharray:none;paint-order:stroke fill markers;stroke:none;stroke-opacity:1;stroke-linejoin:round;stroke-linecap:round;-inkscape-font-specification:'Rockwell Extra Bold, ';font-family:'Rockwell Extra Bold';font-weight:normal;font-style:normal;font-stretch:normal;font-variant:normal;fill-opacity:1;text-align:center;white-space:pre;shape-inside:url(#rect4942)" /><g
       style="display:none;fill:none"
       id="g5155"
       transform="matrix(0.41666667,0,0,0.41666667,263.93243,306.28409)"><path
         fill-rule="evenodd"
         clip-rule="evenodd"
         d="M 0,24 C 0,10.7452 10.7452,0 24,0 37.2548,0 48,10.7452 48,24 48,37.2548 37.2548,48 24,48 10.7452,48 0,37.2548 0,24 Z M 26.5016,38.1115 V 25.0542 h 3.6043 l 0.4777,-4.4996 h -4.082 l 0.0061,-2.2521 c 0,-1.1736 0.1115,-1.8024 1.7971,-1.8024 h 2.2533 V 12 h -3.6049 c -4.3301,0 -5.8541,2.1828 -5.8541,5.8536 v 2.7015 H 18.4 v 4.4996 h 2.6991 v 13.0568 z"
         fill="#000000"
         id="path5146" /></g><g
       style="display:none;fill:none"
       id="g5184"
       transform="matrix(0.41666667,0,0,0.41666667,233.93243,306.28409)"><path
         fill-rule="evenodd"
         clip-rule="evenodd"
         d="M 0,24 C 0,10.7452 10.7452,0 24,0 37.2548,0 48,10.7452 48,24 48,37.2548 37.2548,48 24,48 10.7452,48 0,37.2548 0,24 Z M 24.0012,11.2 c -3.4763,0 -3.9126,0.0152 -5.2779,0.0773 -1.3627,0.0624 -2.2928,0.2782 -3.1067,0.5947 -0.8419,0.3269 -1.556,0.7643 -2.2675,1.476 -0.712,0.7115 -1.1494,1.4256 -1.4774,2.2672 -0.3173,0.8142 -0.5333,1.7446 -0.5946,3.1067 -0.0611,1.3654 -0.0771,1.8019 -0.0771,5.2782 0,3.4763 0.0155,3.9113 0.0773,5.2766 0.0627,1.3627 0.2784,2.2928 0.5947,3.1067 0.3272,0.8419 0.7645,1.556 1.4763,2.2675 0.7112,0.712 1.4253,1.1504 2.2667,1.4774 0.8144,0.3165 1.7448,0.5322 3.1072,0.5946 1.3654,0.0622 1.8014,0.0774 5.2774,0.0774 3.4766,0 3.9115,-0.0152 5.2769,-0.0774 1.3626,-0.0624 2.2938,-0.2781 3.1083,-0.5946 0.8416,-0.327 1.5546,-0.7654 2.2658,-1.4774 0.712,-0.7115 1.1494,-1.4256 1.4774,-2.2672 0.3147,-0.8142 0.5307,-1.7446 0.5947,-3.1067 0.0613,-1.3654 0.0773,-1.8006 0.0773,-5.2769 0,-3.4763 -0.016,-3.9125 -0.0773,-5.2779 -0.064,-1.3627 -0.28,-2.2928 -0.5947,-3.1067 C 35.8,14.7736 35.3626,14.0595 34.6506,13.348 33.9386,12.636 33.2266,12.1987 32.384,11.872 31.5679,11.5555 30.6373,11.3397 29.2746,11.2773 27.9092,11.2152 27.4746,11.2 23.9972,11.2 Z"
         fill="#000000"
         id="path5169" /><path
         fill-rule="evenodd"
         clip-rule="evenodd"
         d="m 22.8529,13.5067 c 0.3408,-5e-4 0.7211,0 1.1483,0 3.4176,0 3.8227,0.0123 5.1723,0.0736 1.248,0.0571 1.9254,0.2656 2.3766,0.4408 0.5973,0.232 1.0232,0.5093 1.4709,0.9573 0.448,0.448 0.7254,0.8747 0.9579,1.4721 0.1752,0.4506 0.384,1.128 0.4408,2.376 0.0613,1.3493 0.0747,1.7547 0.0747,5.1707 0,3.416 -0.0134,3.8214 -0.0747,5.1707 -0.0571,1.248 -0.2656,1.9254 -0.4408,2.376 -0.232,0.5974 -0.5099,1.0227 -0.9579,1.4705 -0.448,0.448 -0.8733,0.7253 -1.4709,0.9573 -0.4507,0.176 -1.1286,0.384 -2.3766,0.4411 -1.3493,0.0613 -1.7547,0.0746 -5.1723,0.0746 -3.4179,0 -3.823,-0.0133 -5.1723,-0.0746 -1.248,-0.0576 -1.9254,-0.2662 -2.3768,-0.4414 -0.5974,-0.232 -1.0241,-0.5093 -1.4721,-0.9573 -0.448,-0.448 -0.7253,-0.8736 -0.9578,-1.4712 -0.1752,-0.4507 -0.384,-1.128 -0.4408,-2.376 -0.0614,-1.3494 -0.0736,-1.7547 -0.0736,-5.1729 0,-3.4182 0.0122,-3.8214 0.0736,-5.1707 0.057,-1.248 0.2656,-1.9254 0.4408,-2.3766 0.232,-0.5973 0.5098,-1.024 0.9578,-1.472 0.448,-0.448 0.8747,-0.7253 1.4721,-0.9579 0.4512,-0.176 1.1288,-0.384 2.3768,-0.4413 1.1808,-0.0533 1.6384,-0.0693 4.024,-0.072 z m 7.9809,2.1253 c -0.848,0 -1.536,0.6873 -1.536,1.5355 0,0.848 0.688,1.536 1.536,1.536 0.848,0 1.536,-0.688 1.536,-1.536 0,-0.848 -0.688,-1.5355 -1.536,-1.5355 z m -6.8326,1.7947 c -3.6302,0 -6.5734,2.9433 -6.5734,6.5734 0,3.6302 2.9432,6.5721 6.5734,6.5721 3.6302,0 6.5723,-2.9419 6.5723,-6.5721 0,-3.6301 -2.9421,-6.5734 -6.5723,-6.5734 z"
         fill="#000000"
         id="path5171" /><path
         fill-rule="evenodd"
         clip-rule="evenodd"
         d="m 24.0012,19.7334 c 2.3563,0 4.2667,1.9102 4.2667,4.2667 0,2.3563 -1.9104,4.2667 -4.2667,4.2667 -2.3566,0 -4.2667,-1.9104 -4.2667,-4.2667 0,-2.3565 1.9101,-4.2667 4.2667,-4.2667 z"
         fill="#000000"
         id="path5173" /></g><g
       style="display:none;fill:none"
       id="g5414"
       transform="matrix(0.41744282,0,0,0.42082004,293.89585,306.20837)"><path
         fill-rule="evenodd"
         clip-rule="evenodd"
         d="m 24.0432,0.179932 c -13.2285,0 -23.9555535,10.907868 -23.9555535,24.364568 0,10.7651 6.8640035,19.8981 16.3822535,23.1198 1.1972,0.2256 1.6368,-0.5285 1.6368,-1.1721 0,-0.581 -0.0222,-2.5003 -0.0325,-4.5362 -6.6645,1.4739 -8.0708,-2.8748 -8.0708,-2.8748 C 8.9137,36.265 7.34358,35.5161 7.34358,35.5161 5.17009,34.0039 7.50742,34.035 7.50742,34.035 c 2.40555,0.1715 3.67218,2.5108 3.67218,2.5108 2.1366,3.7249 5.6041,2.648 6.9711,2.0254 0.215,-1.5743 0.8359,-2.65 1.5209,-3.258 C 14.3508,34.6971 8.7574,32.6079 8.7574,23.2719 c 0,-2.6601 0.9358,-4.8336 2.4682,-6.5399 -0.2487,-0.6141 -1.0687,-3.0918 0.2321,-6.4479 0,0 2.0116,-0.65482 6.5895,2.4975 1.9109,-0.5398 3.9602,-0.8106 5.996,-0.8198 2.0359,0.0092 4.0868,0.28 6.0012,0.8198 4.5723,-3.15232 6.5812,-2.4975 6.5812,-2.4975 1.3039,3.3561 0.4835,5.8338 0.2348,6.4479 1.536,1.7063 2.4655,3.8798 2.4655,6.5399 0,9.3582 -5.6041,11.4187 -10.9385,12.0219 0.8593,0.7561 1.6249,2.2389 1.6249,4.5121 0,3.2596 -0.0278,5.8834 -0.0278,6.6863 0,0.6484 0.4312,1.4081 1.6455,1.1689 C 41.1431,44.4357 47.9984,35.3059 47.9984,24.5445 47.9984,11.0878 37.273,0.179932 24.0432,0.179932 Z"
         fill="#000000"
         id="path5384" /><path
         fill-rule="evenodd"
         clip-rule="evenodd"
         d="m 9.16084,35.1623 c -0.05276,0.1214 -0.24,0.1573 -0.41058,0.0742 C 8.57651,35.157 8.47892,34.992 8.53525,34.8706 c 0.05157,-0.1247 0.23921,-0.159 0.41256,-0.0763 0.17415,0.0799 0.27332,0.2465 0.21303,0.368 z"
         fill="#000000"
         id="path5386" /><path
         fill-rule="evenodd"
         clip-rule="evenodd"
         d="m 10.1312,36.263 c -0.1143,0.1077 -0.33764,0.0577 -0.48917,-0.1126 -0.1567,-0.1699 -0.18605,-0.397 -0.07022,-0.5064 0.11782,-0.1077 0.33441,-0.0573 0.49149,0.1126 0.1567,0.1719 0.1873,0.3974 0.0679,0.5064 z"
         fill="#000000"
         id="path5388" /><path
         fill-rule="evenodd"
         clip-rule="evenodd"
         d="m 11.0757,37.6662 c -0.1468,0.1037 -0.3868,0.0065 -0.5352,-0.2102 -0.1467,-0.2166 -0.1467,-0.4765 0.0032,-0.5806 0.1488,-0.1041 0.3852,-0.0105 0.5356,0.2046 0.1463,0.2199 0.1463,0.4801 -0.0036,0.5862 z"
         fill="#000000"
         id="path5390" /><path
         fill-rule="evenodd"
         clip-rule="evenodd"
         d="m 12.3697,39.0219 c -0.1313,0.1473 -0.411,0.1077 -0.6157,-0.0932 -0.2094,-0.1965 -0.2677,-0.4753 -0.136,-0.6225 0.1329,-0.1477 0.4141,-0.1062 0.6204,0.0932 0.2079,0.196 0.2713,0.4769 0.1313,0.6225 z"
         fill="#000000"
         id="path5392" /><path
         fill-rule="evenodd"
         clip-rule="evenodd"
         d="m 14.1548,39.8091 c -0.0579,0.1908 -0.3273,0.2776 -0.5986,0.1965 -0.2709,-0.0835 -0.4483,-0.3071 -0.3935,-0.4999 0.0563,-0.1921 0.3269,-0.2825 0.6002,-0.1957 0.2705,0.0831 0.4483,0.305 0.3919,0.4991 z"
         fill="#000000"
         id="path5394" /><path
         fill-rule="evenodd"
         clip-rule="evenodd"
         d="m 16.1153,39.9552 c 0.0067,0.2009 -0.2234,0.3675 -0.5082,0.3707 -0.2864,0.0069 -0.5181,-0.1557 -0.5212,-0.3534 0,-0.2029 0.2249,-0.368 0.5113,-0.3728 0.2848,-0.0057 0.5181,0.1557 0.5181,0.3555 z"
         fill="#000000"
         id="path5396" /><path
         fill-rule="evenodd"
         clip-rule="evenodd"
         d="m 17.9397,39.6392 c 0.0341,0.1961 -0.1639,0.3975 -0.4467,0.4507 -0.2781,0.0521 -0.5355,-0.069 -0.5708,-0.2635 -0.0346,-0.2009 0.167,-0.4022 0.4447,-0.4543 0.2832,-0.05 0.5367,0.0678 0.5728,0.2671 z"
         fill="#000000"
         id="path5398" /></g><g
       id="g1916"
       transform="matrix(0.34090909,0,0,0.34090909,229.69013,209.43243)"
       style="display:none"><rect
         x="0"
         y="0"
         width="264"
         height="264"
         fill="#ffffff"
         id="rect936" /><g
         fill="#000000"
         id="g1583"><use
           xlink:href="#p"
           x="32"
           y="32"
           id="use941" /><use
           xlink:href="#p"
           x="32"
           y="40"
           id="use943" /><use
           xlink:href="#p"
           x="32"
           y="48"
           id="use945" /><use
           xlink:href="#p"
           x="32"
           y="56"
           id="use947" /><use
           xlink:href="#p"
           x="32"
           y="64"
           id="use949" /><use
           xlink:href="#p"
           x="32"
           y="72"
           id="use951" /><use
           xlink:href="#p"
           x="32"
           y="80"
           id="use953" /><use
           xlink:href="#p"
           x="32"
           y="96"
           id="use955" /><use
           xlink:href="#p"
           x="32"
           y="104"
           id="use957" /><use
           xlink:href="#p"
           x="32"
           y="112"
           id="use959" /><use
           xlink:href="#p"
           x="32"
           y="120"
           id="use961" /><use
           xlink:href="#p"
           x="32"
           y="128"
           id="use963" /><use
           xlink:href="#p"
           x="32"
           y="176"
           id="use965" /><use
           xlink:href="#p"
           x="32"
           y="184"
           id="use967" /><use
           xlink:href="#p"
           x="32"
           y="192"
           id="use969" /><use
           xlink:href="#p"
           x="32"
           y="200"
           id="use971" /><use
           xlink:href="#p"
           x="32"
           y="208"
           id="use973" /><use
           xlink:href="#p"
           x="32"
           y="216"
           id="use975" /><use
           xlink:href="#p"
           x="32"
           y="224"
           id="use977" /><use
           xlink:href="#p"
           x="40"
           y="32"
           id="use979" /><use
           xlink:href="#p"
           x="40"
           y="80"
           id="use981" /><use
           xlink:href="#p"
           x="40"
           y="96"
           id="use983" /><use
           xlink:href="#p"
           x="40"
           y="104"
           id="use985" /><use
           xlink:href="#p"
           x="40"
           y="120"
           id="use987" /><use
           xlink:href="#p"
           x="40"
           y="136"
           id="use989" /><use
           xlink:href="#p"
           x="40"
           y="152"
           id="use991" /><use
           xlink:href="#p"
           x="40"
           y="160"
           id="use993" /><use
           xlink:href="#p"
           x="40"
           y="176"
           id="use995" /><use
           xlink:href="#p"
           x="40"
           y="224"
           id="use997" /><use
           xlink:href="#p"
           x="48"
           y="32"
           id="use999" /><use
           xlink:href="#p"
           x="48"
           y="48"
           id="use1001" /><use
           xlink:href="#p"
           x="48"
           y="56"
           id="use1003" /><use
           xlink:href="#p"
           x="48"
           y="64"
           id="use1005" /><use
           xlink:href="#p"
           x="48"
           y="80"
           id="use1007" /><use
           xlink:href="#p"
           x="48"
           y="104"
           id="use1009" /><use
           xlink:href="#p"
           x="48"
           y="112"
           id="use1011" /><use
           xlink:href="#p"
           x="48"
           y="120"
           id="use1013" /><use
           xlink:href="#p"
           x="48"
           y="152"
           id="use1015" /><use
           xlink:href="#p"
           x="48"
           y="176"
           id="use1017" /><use
           xlink:href="#p"
           x="48"
           y="192"
           id="use1019" /><use
           xlink:href="#p"
           x="48"
           y="200"
           id="use1021" /><use
           xlink:href="#p"
           x="48"
           y="208"
           id="use1023" /><use
           xlink:href="#p"
           x="48"
           y="224"
           id="use1025" /><use
           xlink:href="#p"
           x="56"
           y="32"
           id="use1027" /><use
           xlink:href="#p"
           x="56"
           y="48"
           id="use1029" /><use
           xlink:href="#p"
           x="56"
           y="56"
           id="use1031" /><use
           xlink:href="#p"
           x="56"
           y="64"
           id="use1033" /><use
           xlink:href="#p"
           x="56"
           y="80"
           id="use1035" /><use
           xlink:href="#p"
           x="56"
           y="96"
           id="use1037" /><use
           xlink:href="#p"
           x="56"
           y="104"
           id="use1039" /><use
           xlink:href="#p"
           x="56"
           y="112"
           id="use1041" /><use
           xlink:href="#p"
           x="56"
           y="120"
           id="use1043" /><use
           xlink:href="#p"
           x="56"
           y="128"
           id="use1045" /><use
           xlink:href="#p"
           x="56"
           y="136"
           id="use1047" /><use
           xlink:href="#p"
           x="56"
           y="144"
           id="use1049" /><use
           xlink:href="#p"
           x="56"
           y="160"
           id="use1051" /><use
           xlink:href="#p"
           x="56"
           y="176"
           id="use1053" /><use
           xlink:href="#p"
           x="56"
           y="192"
           id="use1055" /><use
           xlink:href="#p"
           x="56"
           y="200"
           id="use1057" /><use
           xlink:href="#p"
           x="56"
           y="208"
           id="use1059" /><use
           xlink:href="#p"
           x="56"
           y="224"
           id="use1061" /><use
           xlink:href="#p"
           x="64"
           y="32"
           id="use1063" /><use
           xlink:href="#p"
           x="64"
           y="48"
           id="use1065" /><use
           xlink:href="#p"
           x="64"
           y="56"
           id="use1067" /><use
           xlink:href="#p"
           x="64"
           y="64"
           id="use1069" /><use
           xlink:href="#p"
           x="64"
           y="80"
           id="use1071" /><use
           xlink:href="#p"
           x="64"
           y="96"
           id="use1073" /><use
           xlink:href="#p"
           x="64"
           y="104"
           id="use1075" /><use
           xlink:href="#p"
           x="64"
           y="112"
           id="use1077" /><use
           xlink:href="#p"
           x="64"
           y="128"
           id="use1079" /><use
           xlink:href="#p"
           x="64"
           y="144"
           id="use1081" /><use
           xlink:href="#p"
           x="64"
           y="176"
           id="use1083" /><use
           xlink:href="#p"
           x="64"
           y="192"
           id="use1085" /><use
           xlink:href="#p"
           x="64"
           y="200"
           id="use1087" /><use
           xlink:href="#p"
           x="64"
           y="208"
           id="use1089" /><use
           xlink:href="#p"
           x="64"
           y="224"
           id="use1091" /><use
           xlink:href="#p"
           x="72"
           y="32"
           id="use1093" /><use
           xlink:href="#p"
           x="72"
           y="80"
           id="use1095" /><use
           xlink:href="#p"
           x="72"
           y="104"
           id="use1097" /><use
           xlink:href="#p"
           x="72"
           y="112"
           id="use1099" /><use
           xlink:href="#p"
           x="72"
           y="128"
           id="use1101" /><use
           xlink:href="#p"
           x="72"
           y="144"
           id="use1103" /><use
           xlink:href="#p"
           x="72"
           y="160"
           id="use1105" /><use
           xlink:href="#p"
           x="72"
           y="176"
           id="use1107" /><use
           xlink:href="#p"
           x="72"
           y="224"
           id="use1109" /><use
           xlink:href="#p"
           x="80"
           y="32"
           id="use1111" /><use
           xlink:href="#p"
           x="80"
           y="40"
           id="use1113" /><use
           xlink:href="#p"
           x="80"
           y="48"
           id="use1115" /><use
           xlink:href="#p"
           x="80"
           y="56"
           id="use1117" /><use
           xlink:href="#p"
           x="80"
           y="64"
           id="use1119" /><use
           xlink:href="#p"
           x="80"
           y="72"
           id="use1121" /><use
           xlink:href="#p"
           x="80"
           y="80"
           id="use1123" /><use
           xlink:href="#p"
           x="80"
           y="96"
           id="use1125" /><use
           xlink:href="#p"
           x="80"
           y="112"
           id="use1127" /><use
           xlink:href="#p"
           x="80"
           y="128"
           id="use1129" /><use
           xlink:href="#p"
           x="80"
           y="144"
           id="use1131" /><use
           xlink:href="#p"
           x="80"
           y="160"
           id="use1133" /><use
           xlink:href="#p"
           x="80"
           y="176"
           id="use1135" /><use
           xlink:href="#p"
           x="80"
           y="184"
           id="use1137" /><use
           xlink:href="#p"
           x="80"
           y="192"
           id="use1139" /><use
           xlink:href="#p"
           x="80"
           y="200"
           id="use1141" /><use
           xlink:href="#p"
           x="80"
           y="208"
           id="use1143" /><use
           xlink:href="#p"
           x="80"
           y="216"
           id="use1145" /><use
           xlink:href="#p"
           x="80"
           y="224"
           id="use1147" /><use
           xlink:href="#p"
           x="88"
           y="112"
           id="use1149" /><use
           xlink:href="#p"
           x="88"
           y="120"
           id="use1151" /><use
           xlink:href="#p"
           x="88"
           y="144"
           id="use1153" /><use
           xlink:href="#p"
           x="88"
           y="160"
           id="use1155" /><use
           xlink:href="#p"
           x="96"
           y="32"
           id="use1157" /><use
           xlink:href="#p"
           x="96"
           y="80"
           id="use1159" /><use
           xlink:href="#p"
           x="96"
           y="88"
           id="use1161" /><use
           xlink:href="#p"
           x="96"
           y="112"
           id="use1163" /><use
           xlink:href="#p"
           x="96"
           y="120"
           id="use1165" /><use
           xlink:href="#p"
           x="96"
           y="128"
           id="use1167" /><use
           xlink:href="#p"
           x="96"
           y="136"
           id="use1169" /><use
           xlink:href="#p"
           x="96"
           y="144"
           id="use1171" /><use
           xlink:href="#p"
           x="96"
           y="152"
           id="use1173" /><use
           xlink:href="#p"
           x="96"
           y="160"
           id="use1175" /><use
           xlink:href="#p"
           x="96"
           y="168"
           id="use1177" /><use
           xlink:href="#p"
           x="96"
           y="192"
           id="use1179" /><use
           xlink:href="#p"
           x="96"
           y="200"
           id="use1181" /><use
           xlink:href="#p"
           x="96"
           y="216"
           id="use1183" /><use
           xlink:href="#p"
           x="96"
           y="224"
           id="use1185" /><use
           xlink:href="#p"
           x="104"
           y="40"
           id="use1187" /><use
           xlink:href="#p"
           x="104"
           y="48"
           id="use1189" /><use
           xlink:href="#p"
           x="104"
           y="72"
           id="use1191" /><use
           xlink:href="#p"
           x="104"
           y="88"
           id="use1193" /><use
           xlink:href="#p"
           x="104"
           y="96"
           id="use1195" /><use
           xlink:href="#p"
           x="104"
           y="112"
           id="use1197" /><use
           xlink:href="#p"
           x="104"
           y="128"
           id="use1199" /><use
           xlink:href="#p"
           x="104"
           y="144"
           id="use1201" /><use
           xlink:href="#p"
           x="104"
           y="168"
           id="use1203" /><use
           xlink:href="#p"
           x="104"
           y="176"
           id="use1205" /><use
           xlink:href="#p"
           x="104"
           y="192"
           id="use1207" /><use
           xlink:href="#p"
           x="104"
           y="200"
           id="use1209" /><use
           xlink:href="#p"
           x="112"
           y="40"
           id="use1211" /><use
           xlink:href="#p"
           x="112"
           y="56"
           id="use1213" /><use
           xlink:href="#p"
           x="112"
           y="80"
           id="use1215" /><use
           xlink:href="#p"
           x="112"
           y="104"
           id="use1217" /><use
           xlink:href="#p"
           x="112"
           y="128"
           id="use1219" /><use
           xlink:href="#p"
           x="112"
           y="136"
           id="use1221" /><use
           xlink:href="#p"
           x="112"
           y="176"
           id="use1223" /><use
           xlink:href="#p"
           x="112"
           y="184"
           id="use1225" /><use
           xlink:href="#p"
           x="112"
           y="192"
           id="use1227" /><use
           xlink:href="#p"
           x="112"
           y="224"
           id="use1229" /><use
           xlink:href="#p"
           x="120"
           y="32"
           id="use1231" /><use
           xlink:href="#p"
           x="120"
           y="48"
           id="use1233" /><use
           xlink:href="#p"
           x="120"
           y="72"
           id="use1235" /><use
           xlink:href="#p"
           x="120"
           y="104"
           id="use1237" /><use
           xlink:href="#p"
           x="120"
           y="112"
           id="use1239" /><use
           xlink:href="#p"
           x="120"
           y="136"
           id="use1241" /><use
           xlink:href="#p"
           x="120"
           y="160"
           id="use1243" /><use
           xlink:href="#p"
           x="120"
           y="176"
           id="use1245" /><use
           xlink:href="#p"
           x="120"
           y="192"
           id="use1247" /><use
           xlink:href="#p"
           x="120"
           y="200"
           id="use1249" /><use
           xlink:href="#p"
           x="120"
           y="208"
           id="use1251" /><use
           xlink:href="#p"
           x="128"
           y="40"
           id="use1253" /><use
           xlink:href="#p"
           x="128"
           y="48"
           id="use1255" /><use
           xlink:href="#p"
           x="128"
           y="80"
           id="use1257" /><use
           xlink:href="#p"
           x="128"
           y="96"
           id="use1259" /><use
           xlink:href="#p"
           x="128"
           y="120"
           id="use1261" /><use
           xlink:href="#p"
           x="128"
           y="128"
           id="use1263" /><use
           xlink:href="#p"
           x="128"
           y="152"
           id="use1265" /><use
           xlink:href="#p"
           x="128"
           y="160"
           id="use1267" /><use
           xlink:href="#p"
           x="128"
           y="192"
           id="use1269" /><use
           xlink:href="#p"
           x="136"
           y="48"
           id="use1271" /><use
           xlink:href="#p"
           x="136"
           y="56"
           id="use1273" /><use
           xlink:href="#p"
           x="136"
           y="72"
           id="use1275" /><use
           xlink:href="#p"
           x="136"
           y="88"
           id="use1277" /><use
           xlink:href="#p"
           x="136"
           y="104"
           id="use1279" /><use
           xlink:href="#p"
           x="136"
           y="136"
           id="use1281" /><use
           xlink:href="#p"
           x="136"
           y="160"
           id="use1283" /><use
           xlink:href="#p"
           x="136"
           y="168"
           id="use1285" /><use
           xlink:href="#p"
           x="136"
           y="176"
           id="use1287" /><use
           xlink:href="#p"
           x="136"
           y="184"
           id="use1289" /><use
           xlink:href="#p"
           x="136"
           y="208"
           id="use1291" /><use
           xlink:href="#p"
           x="136"
           y="224"
           id="use1293" /><use
           xlink:href="#p"
           x="144"
           y="32"
           id="use1295" /><use
           xlink:href="#p"
           x="144"
           y="48"
           id="use1297" /><use
           xlink:href="#p"
           x="144"
           y="64"
           id="use1299" /><use
           xlink:href="#p"
           x="144"
           y="80"
           id="use1301" /><use
           xlink:href="#p"
           x="144"
           y="96"
           id="use1303" /><use
           xlink:href="#p"
           x="144"
           y="104"
           id="use1305" /><use
           xlink:href="#p"
           x="144"
           y="112"
           id="use1307" /><use
           xlink:href="#p"
           x="144"
           y="152"
           id="use1309" /><use
           xlink:href="#p"
           x="144"
           y="176"
           id="use1311" /><use
           xlink:href="#p"
           x="144"
           y="192"
           id="use1313" /><use
           xlink:href="#p"
           x="144"
           y="208"
           id="use1315" /><use
           xlink:href="#p"
           x="144"
           y="216"
           id="use1317" /><use
           xlink:href="#p"
           x="152"
           y="48"
           id="use1319" /><use
           xlink:href="#p"
           x="152"
           y="96"
           id="use1321" /><use
           xlink:href="#p"
           x="152"
           y="104"
           id="use1323" /><use
           xlink:href="#p"
           x="152"
           y="112"
           id="use1325" /><use
           xlink:href="#p"
           x="152"
           y="120"
           id="use1327" /><use
           xlink:href="#p"
           x="152"
           y="136"
           id="use1329" /><use
           xlink:href="#p"
           x="152"
           y="144"
           id="use1331" /><use
           xlink:href="#p"
           x="152"
           y="152"
           id="use1333" /><use
           xlink:href="#p"
           x="152"
           y="160"
           id="use1335" /><use
           xlink:href="#p"
           x="152"
           y="168"
           id="use1337" /><use
           xlink:href="#p"
           x="152"
           y="184"
           id="use1339" /><use
           xlink:href="#p"
           x="152"
           y="192"
           id="use1341" /><use
           xlink:href="#p"
           x="152"
           y="216"
           id="use1343" /><use
           xlink:href="#p"
           x="160"
           y="32"
           id="use1345" /><use
           xlink:href="#p"
           x="160"
           y="40"
           id="use1347" /><use
           xlink:href="#p"
           x="160"
           y="56"
           id="use1349" /><use
           xlink:href="#p"
           x="160"
           y="64"
           id="use1351" /><use
           xlink:href="#p"
           x="160"
           y="80"
           id="use1353" /><use
           xlink:href="#p"
           x="160"
           y="88"
           id="use1355" /><use
           xlink:href="#p"
           x="160"
           y="96"
           id="use1357" /><use
           xlink:href="#p"
           x="160"
           y="128"
           id="use1359" /><use
           xlink:href="#p"
           x="160"
           y="144"
           id="use1361" /><use
           xlink:href="#p"
           x="160"
           y="152"
           id="use1363" /><use
           xlink:href="#p"
           x="160"
           y="160"
           id="use1365" /><use
           xlink:href="#p"
           x="160"
           y="168"
           id="use1367" /><use
           xlink:href="#p"
           x="160"
           y="176"
           id="use1369" /><use
           xlink:href="#p"
           x="160"
           y="184"
           id="use1371" /><use
           xlink:href="#p"
           x="160"
           y="192"
           id="use1373" /><use
           xlink:href="#p"
           x="160"
           y="200"
           id="use1375" /><use
           xlink:href="#p"
           x="160"
           y="224"
           id="use1377" /><use
           xlink:href="#p"
           x="168"
           y="112"
           id="use1379" /><use
           xlink:href="#p"
           x="168"
           y="144"
           id="use1381" /><use
           xlink:href="#p"
           x="168"
           y="160"
           id="use1383" /><use
           xlink:href="#p"
           x="168"
           y="192"
           id="use1385" /><use
           xlink:href="#p"
           x="168"
           y="200"
           id="use1387" /><use
           xlink:href="#p"
           x="168"
           y="208"
           id="use1389" /><use
           xlink:href="#p"
           x="168"
           y="216"
           id="use1391" /><use
           xlink:href="#p"
           x="176"
           y="32"
           id="use1393" /><use
           xlink:href="#p"
           x="176"
           y="40"
           id="use1395" /><use
           xlink:href="#p"
           x="176"
           y="48"
           id="use1397" /><use
           xlink:href="#p"
           x="176"
           y="56"
           id="use1399" /><use
           xlink:href="#p"
           x="176"
           y="64"
           id="use1401" /><use
           xlink:href="#p"
           x="176"
           y="72"
           id="use1403" /><use
           xlink:href="#p"
           x="176"
           y="80"
           id="use1405" /><use
           xlink:href="#p"
           x="176"
           y="96"
           id="use1407" /><use
           xlink:href="#p"
           x="176"
           y="120"
           id="use1409" /><use
           xlink:href="#p"
           x="176"
           y="128"
           id="use1411" /><use
           xlink:href="#p"
           x="176"
           y="160"
           id="use1413" /><use
           xlink:href="#p"
           x="176"
           y="176"
           id="use1415" /><use
           xlink:href="#p"
           x="176"
           y="192"
           id="use1417" /><use
           xlink:href="#p"
           x="176"
           y="200"
           id="use1419" /><use
           xlink:href="#p"
           x="184"
           y="32"
           id="use1421" /><use
           xlink:href="#p"
           x="184"
           y="80"
           id="use1423" /><use
           xlink:href="#p"
           x="184"
           y="104"
           id="use1425" /><use
           xlink:href="#p"
           x="184"
           y="120"
           id="use1427" /><use
           xlink:href="#p"
           x="184"
           y="128"
           id="use1429" /><use
           xlink:href="#p"
           x="184"
           y="152"
           id="use1431" /><use
           xlink:href="#p"
           x="184"
           y="160"
           id="use1433" /><use
           xlink:href="#p"
           x="184"
           y="192"
           id="use1435" /><use
           xlink:href="#p"
           x="184"
           y="216"
           id="use1437" /><use
           xlink:href="#p"
           x="192"
           y="32"
           id="use1439" /><use
           xlink:href="#p"
           x="192"
           y="48"
           id="use1441" /><use
           xlink:href="#p"
           x="192"
           y="56"
           id="use1443" /><use
           xlink:href="#p"
           x="192"
           y="64"
           id="use1445" /><use
           xlink:href="#p"
           x="192"
           y="80"
           id="use1447" /><use
           xlink:href="#p"
           x="192"
           y="104"
           id="use1449" /><use
           xlink:href="#p"
           x="192"
           y="112"
           id="use1451" /><use
           xlink:href="#p"
           x="192"
           y="120"
           id="use1453" /><use
           xlink:href="#p"
           x="192"
           y="136"
           id="use1455" /><use
           xlink:href="#p"
           x="192"
           y="144"
           id="use1457" /><use
           xlink:href="#p"
           x="192"
           y="160"
           id="use1459" /><use
           xlink:href="#p"
           x="192"
           y="168"
           id="use1461" /><use
           xlink:href="#p"
           x="192"
           y="176"
           id="use1463" /><use
           xlink:href="#p"
           x="192"
           y="184"
           id="use1465" /><use
           xlink:href="#p"
           x="192"
           y="192"
           id="use1467" /><use
           xlink:href="#p"
           x="192"
           y="208"
           id="use1469" /><use
           xlink:href="#p"
           x="192"
           y="216"
           id="use1471" /><use
           xlink:href="#p"
           x="200"
           y="32"
           id="use1473" /><use
           xlink:href="#p"
           x="200"
           y="48"
           id="use1475" /><use
           xlink:href="#p"
           x="200"
           y="56"
           id="use1477" /><use
           xlink:href="#p"
           x="200"
           y="64"
           id="use1479" /><use
           xlink:href="#p"
           x="200"
           y="80"
           id="use1481" /><use
           xlink:href="#p"
           x="200"
           y="104"
           id="use1483" /><use
           xlink:href="#p"
           x="200"
           y="112"
           id="use1485" /><use
           xlink:href="#p"
           x="200"
           y="120"
           id="use1487" /><use
           xlink:href="#p"
           x="200"
           y="144"
           id="use1489" /><use
           xlink:href="#p"
           x="200"
           y="152"
           id="use1491" /><use
           xlink:href="#p"
           x="200"
           y="208"
           id="use1493" /><use
           xlink:href="#p"
           x="200"
           y="224"
           id="use1495" /><use
           xlink:href="#p"
           x="208"
           y="32"
           id="use1497" /><use
           xlink:href="#p"
           x="208"
           y="48"
           id="use1499" /><use
           xlink:href="#p"
           x="208"
           y="56"
           id="use1501" /><use
           xlink:href="#p"
           x="208"
           y="64"
           id="use1503" /><use
           xlink:href="#p"
           x="208"
           y="80"
           id="use1505" /><use
           xlink:href="#p"
           x="208"
           y="104"
           id="use1507" /><use
           xlink:href="#p"
           x="208"
           y="120"
           id="use1509" /><use
           xlink:href="#p"
           x="208"
           y="144"
           id="use1511" /><use
           xlink:href="#p"
           x="208"
           y="152"
           id="use1513" /><use
           xlink:href="#p"
           x="208"
           y="160"
           id="use1515" /><use
           xlink:href="#p"
           x="208"
           y="168"
           id="use1517" /><use
           xlink:href="#p"
           x="208"
           y="208"
           id="use1519" /><use
           xlink:href="#p"
           x="208"
           y="216"
           id="use1521" /><use
           xlink:href="#p"
           x="216"
           y="32"
           id="use1523" /><use
           xlink:href="#p"
           x="216"
           y="80"
           id="use1525" /><use
           xlink:href="#p"
           x="216"
           y="104"
           id="use1527" /><use
           xlink:href="#p"
           x="216"
           y="120"
           id="use1529" /><use
           xlink:href="#p"
           x="216"
           y="136"
           id="use1531" /><use
           xlink:href="#p"
           x="216"
           y="144"
           id="use1533" /><use
           xlink:href="#p"
           x="216"
           y="160"
           id="use1535" /><use
           xlink:href="#p"
           x="216"
           y="168"
           id="use1537" /><use
           xlink:href="#p"
           x="216"
           y="192"
           id="use1539" /><use
           xlink:href="#p"
           x="216"
           y="200"
           id="use1541" /><use
           xlink:href="#p"
           x="216"
           y="208"
           id="use1543" /><use
           xlink:href="#p"
           x="216"
           y="216"
           id="use1545" /><use
           xlink:href="#p"
           x="224"
           y="32"
           id="use1547" /><use
           xlink:href="#p"
           x="224"
           y="40"
           id="use1549" /><use
           xlink:href="#p"
           x="224"
           y="48"
           id="use1551" /><use
           xlink:href="#p"
           x="224"
           y="56"
           id="use1553" /><use
           xlink:href="#p"
           x="224"
           y="64"
           id="use1555" /><use
           xlink:href="#p"
           x="224"
           y="72"
           id="use1557" /><use
           xlink:href="#p"
           x="224"
           y="80"
           id="use1559" /><use
           xlink:href="#p"
           x="224"
           y="96"
           id="use1561" /><use
           xlink:href="#p"
           x="224"
           y="112"
           id="use1563" /><use
           xlink:href="#p"
           x="224"
           y="120"
           id="use1565" /><use
           xlink:href="#p"
           x="224"
           y="128"
           id="use1567" /><use
           xlink:href="#p"
           x="224"
           y="144"
           id="use1569" /><use
           xlink:href="#p"
           x="224"
           y="152"
           id="use1571" /><use
           xlink:href="#p"
           x="224"
           y="176"
           id="use1573" /><use
           xlink:href="#p"
           x="224"
           y="200"
           id="use1575" /><use
           xlink:href="#p"
           x="224"
           y="208"
           id="use1577" /><use
           xlink:href="#p"
           x="224"
           y="216"
           id="use1579" /><use
           xlink:href="#p"
           x="224"
           y="224"
           id="use1581" /></g><g
         id="g1585" /></g><text
       xml:space="preserve"
       transform="matrix(0.26458333,0,0,0.26458333,39.330128,66.182061)"
       id="text1128"
       style="font-size:64px;font-family:'Rockwell Extra Bold';-inkscape-font-specification:'Rockwell Extra Bold, ';text-align:start;white-space:pre;shape-inside:url(#rect1130);fill:#000000;stroke-width:0;stroke-linecap:round;stroke-linejoin:round;paint-order:stroke fill markers"
       x="-239.70312"
       y="0"><tspan
         x="432.42383"
         y="453.47902"
         id="tspan1826">Arduino UNO
</tspan><tspan
         x="432.42383"
         y="533.47902"
         id="tspan1830"><tspan
           style="font-size:48px"
           id="tspan1828">built-in LED</tspan></tspan></text></g></svg>
